<?xml version="1.0" encoding="UTF-8"?>
<svg width="13px" height="13px" viewBox="0 0 13 13" version="1.1" xmlns="http://www.w3.org/2000/svg" xmlns:xlink="http://www.w3.org/1999/xlink">
    <!-- Generator: Sketch 48.2 (47327) - http://www.bohemiancoding.com/sketch -->
    <title>decline</title>
    <desc>Created with Sketch.</desc>
    <defs></defs>
    <g id="icons" stroke="none" stroke-width="1" fill="none" fill-rule="evenodd" transform="translate(-248.000000, -58.000000)">
        <path d="M254.375829,62.9782681 L258.997438,58.3323132 C259.386935,57.9407644 260.020098,57.9391011 260.411647,58.3285981 C260.803196,58.7180951 260.804859,59.3512579 260.415362,59.7428068 L255.787518,64.3950294 L260.395694,69.0197624 C260.785517,69.4109864 260.784382,70.0441504 260.393158,70.4339737 C260.001934,70.8237971 259.36877,70.8226616 258.978946,70.4314376 L254.377011,65.8129671 L249.708962,70.5056068 C249.319465,70.8971556 248.686302,70.898819 248.294753,70.5093219 C247.903204,70.1198249 247.901541,69.4866621 248.291038,69.0951132 L252.965322,64.3962058 L248.291746,59.7058376 C247.901923,59.3146136 247.903058,58.6814496 248.294282,58.2916263 C248.685506,57.901803 249.31867,57.9029384 249.708494,58.2941624 L254.375829,62.9782681 Z" id="decline" fill="#000000" fill-rule="nonzero"></path>
    </g>
</svg>