<?xml version="1.0" encoding="UTF-8"?>
<svg width="14px" height="16px" viewBox="0 0 14 16" version="1.1" xmlns="http://www.w3.org/2000/svg" xmlns:xlink="http://www.w3.org/1999/xlink">
    <!-- Generator: Sketch 48.2 (47327) - http://www.bohemiancoding.com/sketch -->
    <title>detection</title>
    <desc>Created with Sketch.</desc>
    <defs></defs>
    <g id="icons" stroke="none" stroke-width="1" fill="none" fill-rule="evenodd" transform="translate(-120.000000, -59.000000)">
        <path d="M127.805399,64.8815832 L127.564964,67.5459069 C127.538475,67.8627135 127.48346,68.1057297 127.397882,68.2749556 C127.312303,68.4451654 127.169672,68.5297783 126.972026,68.5297783 C126.770305,68.5297783 126.63073,68.4471331 126.552283,68.2838105 C126.473836,68.1195039 126.417802,67.8705845 126.384182,67.5350843 L126.205893,64.9465187 C126.171254,64.4427765 126.154954,64.0807119 126.154954,63.8603247 C126.154954,63.5612278 126.235438,63.3280503 126.398445,63.1607921 C126.560433,62.9925501 126.77438,62.908921 127.039266,62.908921 C127.360186,62.908921 127.574133,63.016163 127.683144,63.230647 C127.791136,63.4451309 127.845132,63.7540666 127.845132,64.1584377 C127.845132,64.3955507 127.831888,64.6365992 127.805399,64.8815832 M127.59349,70.8753277 C127.42437,71.0189729 127.229781,71.0917794 127.005646,71.0917794 C126.777436,71.0917794 126.57979,71.0199568 126.409652,70.8782793 C126.239513,70.735618 126.154954,70.5358921 126.154954,70.2800855 C126.154954,70.0567467 126.235438,69.8668595 126.398445,69.710424 C126.560433,69.5530046 126.759098,69.4752787 126.994439,69.4752787 C127.229781,69.4752787 127.430483,69.5530046 127.595528,69.710424 C127.76261,69.8668595 127.845132,70.0567467 127.845132,70.2800855 C127.845132,70.5319566 127.760572,70.7306986 127.59349,70.8753277 M133.031809,61.3603075 C130.924944,61.1743558 129.154281,60.384307 127.720839,59.2331775 C127.336754,58.9222742 126.781512,58.9222742 126.396408,59.2331775 C124.960928,60.3862748 123.187208,61.1773074 121.07525,61.3612913 C120.568909,61.4055656 120.115546,61.8286303 120.072757,62.3195821 C119.872055,64.6051153 119.602074,70.5781985 126.535982,74.8501681 C126.845696,75.0400553 127.250157,75.0518618 127.565983,74.8718133 C133.20806,71.6427474 133.933441,64.9189703 133.999663,62.3914047 C134.013926,61.8670012 133.573807,61.4075333 133.031809,61.3603075" id="detection" fill="#000000"></path>
    </g>
</svg>