<?xml version="1.0" encoding="UTF-8"?>
<svg width="18px" height="11px" viewBox="0 0 18 11" version="1.1" xmlns="http://www.w3.org/2000/svg" xmlns:xlink="http://www.w3.org/1999/xlink">
    <!-- Generator: Sketch 48.2 (47327) - http://www.bohemiancoding.com/sketch -->
    <title>ic_show (Disabled)</title>
    <desc>Created with Sketch.</desc>
    <defs></defs>
    <g id="icons" stroke="none" stroke-width="1" fill="none" fill-rule="evenodd" transform="translate(-333.000000, -60.000000)">
        <g id="ic_show-(Disabled)" transform="translate(333.000000, 60.000000)" fill="#000000" fill-rule="nonzero">
            <path d="M15.6079754,5.0455665 C15.116977,4.47706193 14.5587018,3.90825244 13.9450894,3.37845411 C12.2177207,1.88702891 10.4065851,1 8.6151,1 C6.82361489,1 5.01247926,1.88702891 3.28511059,3.37845411 C2.67149817,3.90825244 2.11322303,4.47706193 1.62222458,5.0455665 C1.47231652,5.21913816 1.34573426,5.37236791 1.2439752,5.5 C1.34573426,5.62763209 1.47231652,5.78086184 1.62222458,5.9544335 C2.11322303,6.52293807 2.67149817,7.09174756 3.28511059,7.62154589 C5.01247926,9.11297109 6.82361489,10 8.6151,10 C10.4065851,10 12.2177207,9.11297109 13.9450894,7.62154589 C14.5587018,7.09174756 15.116977,6.52293807 15.6079754,5.9544335 C15.7578835,5.78086184 15.8844657,5.62763209 15.9862248,5.5 C15.8844657,5.37236791 15.7578835,5.21913816 15.6079754,5.0455665 Z M16.8469011,6.02224055 C16.7086706,6.1995695 16.5475434,6.39646132 16.3647871,6.6080665 C15.8436762,7.21143693 15.2517794,7.81450244 14.5986106,8.37845411 C12.7066043,10.0120289 10.6893649,11 8.6151,11 C6.54083511,11 4.52359574,10.0120289 2.63158941,8.37845411 C1.97842058,7.81450244 1.38652384,7.21143693 0.865412919,6.6080665 C0.682656572,6.39646132 0.521529395,6.1995695 0.383298946,6.02224055 C0.299108461,5.91423677 0.240457493,5.83560071 0.208640122,5.79118786 L3.31418455e-05,5.5 L0.208640122,5.20881214 C0.240457493,5.16439929 0.299108461,5.08576323 0.383298946,4.97775945 C0.521529395,4.8004305 0.682656572,4.60353868 0.865412919,4.3919335 C1.38652384,3.78856307 1.97842058,3.18549756 2.63158941,2.62154589 C4.52359574,0.987971089 6.54083511,0 8.6151,0 C10.6893649,0 12.7066043,0.987971089 14.5986106,2.62154589 C15.2517794,3.18549756 15.8436762,3.78856307 16.3647871,4.3919335 C16.5475434,4.60353868 16.7086706,4.8004305 16.8469011,4.97775945 C16.9310915,5.08576323 16.9897425,5.16439929 17.0215599,5.20881214 L17.2301669,5.5 L17.0215599,5.79118786 C16.9897425,5.83560071 16.9310915,5.91423677 16.8469011,6.02224055 Z" id="Stroke-1"></path>
            <path d="M10.1151,5.5 C10.1151,4.67214237 9.44295763,4 8.6151,4 C7.78724237,4 7.1151,4.67214237 7.1151,5.5 C7.1151,6.32785763 7.78724237,7 8.6151,7 C9.44295763,7 10.1151,6.32785763 10.1151,5.5 Z M11.1151,5.5 C11.1151,6.88014237 9.99524237,8 8.6151,8 C7.23495763,8 6.1151,6.88014237 6.1151,5.5 C6.1151,4.11985763 7.23495763,3 8.6151,3 C9.99524237,3 11.1151,4.11985763 11.1151,5.5 Z" id="Stroke-3"></path>
        </g>
    </g>
</svg>