<?xml version="1.0" encoding="UTF-8"?>
<svg width="16px" height="18px" viewBox="0 0 16 18" version="1.1" xmlns="http://www.w3.org/2000/svg" xmlns:xlink="http://www.w3.org/1999/xlink">
    <!-- Generator: Sketch 48.2 (47327) - http://www.bohemiancoding.com/sketch -->
    <title>request_multiple</title>
    <desc>Created with Sketch.</desc>
    <defs></defs>
    <g id="icons" stroke="none" stroke-width="1" fill="none" fill-rule="evenodd" transform="translate(-156.000000, -59.000000)">
        <path d="M170.115,59.0005 C170.818,59.0005 171.393,59.5755 171.393,60.2775 L171.393,71.8845 C171.393,72.5875 170.818,73.1615 170.115,73.1615 L169.938,73.1615 L169.938,61.8055 C169.938,61.1035 169.363,60.5275 168.661,60.5275 L159.687,60.5275 L159.687,60.2775 C159.687,59.5755 160.262,59.0005 160.966,59.0005 L170.115,59.0005 Z M167.057776,77 L157.367445,77 C156.623314,77 156.014145,76.3908301 156.014145,75.6457756 L156.014145,63.3542244 C156.014145,62.6100943 156.623314,62 157.367445,62 L167.057776,62 C167.80283,62 168.412,62.6100943 168.412,63.3542244 L168.412,75.6457756 C168.412,76.3908301 167.80283,77 167.057776,77 Z M165.971253,65.6554816 C166.317898,65.6554816 166.602608,65.3716953 166.602608,65.0241265 L166.602608,64.8993344 C166.602608,64.55269 166.317898,64.2679793 165.971253,64.2679793 L158.297006,64.2679793 C157.949438,64.2679793 157.666576,64.55269 157.666576,64.8993344 L157.666576,65.0241265 C157.666576,65.3716953 157.949438,65.6554816 158.297006,65.6554816 L165.971253,65.6554816 Z M163.821872,68.6641708 C164.109356,68.6641708 164.343226,68.429377 164.343226,68.1418931 L164.343226,67.91357 C164.343226,67.6260862 164.109356,67.3903679 163.821872,67.3903679 L158.188669,67.3903679 C157.901185,67.3903679 157.666391,67.6260862 157.666391,67.91357 L157.666391,68.1418931 C157.666391,68.429377 157.901185,68.6641708 158.188669,68.6641708 L163.821872,68.6641708 Z" id="request_multiple" fill="#000000"></path>
    </g>
</svg>