<?xml version="1.0" encoding="UTF-8"?>
<svg width="14px" height="17px" viewBox="0 0 14 17" version="1.1" xmlns="http://www.w3.org/2000/svg" xmlns:xlink="http://www.w3.org/1999/xlink">
    <!-- Generator: Sketch 48.2 (47327) - http://www.bohemiancoding.com/sketch -->
    <title>request_single</title>
    <desc>Created with Sketch.</desc>
    <defs></defs>
    <g id="icons" stroke="none" stroke-width="1" fill="none" fill-rule="evenodd" transform="translate(-194.000000, -59.000000)">
        <path d="M205.947,75.4532 L195.464,75.4532 C194.659,75.4532 194,74.7942 194,73.9882 L194,60.6912 C194,59.8862 194.659,59.2262 195.464,59.2262 L205.947,59.2262 C206.753,59.2262 207.412,59.8862 207.412,60.6912 L207.412,73.9882 C207.412,74.7942 206.753,75.4532 205.947,75.4532 Z M204.7716,63.1807 C205.1466,63.1807 205.4546,62.8737 205.4546,62.4977 L205.4546,62.3627 C205.4546,61.9877 205.1466,61.6797 204.7716,61.6797 L196.4696,61.6797 C196.0936,61.6797 195.7876,61.9877 195.7876,62.3627 L195.7876,62.4977 C195.7876,62.8737 196.0936,63.1807 196.4696,63.1807 L204.7716,63.1807 Z M202.4464,66.4355 C202.7574,66.4355 203.0104,66.1815 203.0104,65.8705 L203.0104,65.6235 C203.0104,65.3125 202.7574,65.0575 202.4464,65.0575 L196.3524,65.0575 C196.0414,65.0575 195.7874,65.3125 195.7874,65.6235 L195.7874,65.8705 C195.7874,66.1815 196.0414,66.4355 196.3524,66.4355 L202.4464,66.4355 Z" id="request_single" fill="#000000"></path>
    </g>
</svg>