<?xml version="1.0" encoding="UTF-8"?>
<svg width="21px" height="13px" viewBox="0 0 21 13" version="1.1" xmlns="http://www.w3.org/2000/svg" xmlns:xlink="http://www.w3.org/1999/xlink">
    <!-- Generator: Sketch 48.2 (47327) - http://www.bohemiancoding.com/sketch -->
    <title>sessions</title>
    <desc>Created with Sketch.</desc>
    <defs></defs>
    <g id="icons" stroke="none" stroke-width="1" fill="none" fill-rule="evenodd" transform="translate(-84.000000, -61.000000)">
        <path d="M103.5806,61.9687 C103.8366,61.9687 104.0446,62.1757 104.0446,62.4317 L104.0446,71.6647 C104.0446,71.7387 104.0266,71.8097 103.9936,71.8747 C103.8776,72.1027 103.5986,72.1937 103.3706,72.0767 L99.0016,69.8577 L99.0016,64.2387 L103.3706,62.0197 C103.4356,61.9867 103.5076,61.9687 103.5806,61.9687 Z M95.874,61.0004 C97.151,61.0004 98.185,62.0354 98.185,63.3114 L98.185,64.2384 L98.185,69.8574 L98.185,70.7844 C98.185,72.0634 97.148,73.1004 95.869,73.1004 L86.316,73.1004 C85.037,73.1004 84,72.0634 84,70.7844 L84,63.3164 C84,62.0374 85.037,61.0004 86.316,61.0004 L95.874,61.0004 Z M90.937,69.8154 C92.405,69.8154 93.593,68.6264 93.593,67.1594 C93.593,65.6914 92.405,64.5034 90.937,64.5034 C89.47,64.5034 88.281,65.6914 88.281,67.1594 C88.281,68.6264 89.47,69.8154 90.937,69.8154 Z" id="sessions" fill="#000000"></path>
    </g>
</svg>