<?xml version="1.0" encoding="UTF-8"?>
<svg width="12px" height="15px" viewBox="0 0 12 15" version="1.1" xmlns="http://www.w3.org/2000/svg" xmlns:xlink="http://www.w3.org/1999/xlink">
    <!-- Generator: Sketch 48.2 (47327) - http://www.bohemiancoding.com/sketch -->
    <title>timeline</title>
    <desc>Created with Sketch.</desc>
    <defs></defs>
    <g id="icons" stroke="none" stroke-width="1" fill="none" fill-rule="evenodd" transform="translate(-222.000000, -62.000000)">
        <path d="M227.0262,68.3391197 L224.788067,66.1103534 C224.382361,65.7073776 224.159274,65.1711097 224.159274,64.600744 L224.159274,63.321554 L224.159274,63.1603637 L231.840726,63.1603637 L231.840726,63.321554 L231.840726,64.600744 C231.840726,65.1711097 231.617639,65.7073776 231.211933,66.1103534 L228.9738,68.3391197 C228.662516,68.6491011 228.49131,69.0613763 228.49131,69.5005166 C228.49131,69.9386237 228.662516,70.3498657 228.9738,70.6608803 L231.211933,72.8896466 C231.617639,73.2926224 231.840726,73.827857 231.840726,74.399256 L231.840726,75.678446 L231.840726,75.8396363 L224.159274,75.8396363 L224.159274,75.678446 L224.159274,74.399256 C224.159274,73.827857 224.382361,73.2926224 224.788067,72.8886133 L227.0262,70.6608803 C227.337484,70.3498657 227.50869,69.9375904 227.50869,69.5005166 C227.50869,69.0613763 227.337484,68.6491011 227.0262,68.3391197 Z M223.964202,72.0681959 C223.342672,72.6871254 222.994034,73.5251085 222.994034,74.399256 L222.994034,75.678446 L222,75.678446 L222,77 L234,77 L234,75.678446 L233.005966,75.678446 L233.005966,74.399256 C233.005966,73.5251085 232.657328,72.6871254 232.035798,72.0681959 L229.797665,69.8404629 C229.60882,69.6524075 229.60882,69.3475925 229.797665,69.1595371 L232.035798,66.9307708 C232.657328,66.3128746 233.005966,65.4748915 233.005966,64.600744 L233.005966,63.321554 L234,63.321554 L234,62 L222,62 L222,63.321554 L222.994034,63.321554 L222.994034,64.600744 C222.994034,65.4748915 223.342672,66.3128746 223.964202,66.9307708 L226.202335,69.1595371 C226.39118,69.3475925 226.39118,69.6524075 226.202335,69.8404629 L223.964202,72.0681959 Z" id="timeline" fill="#333333"></path>
    </g>
</svg>